<?xml version="1.0" encoding="utf-8" standalone="no"?>
<!DOCTYPE svg PUBLIC "-//W3C//DTD SVG 1.1//EN"
  "http://www.w3.org/Graphics/SVG/1.1/DTD/svg11.dtd">
<svg xmlns:xlink="http://www.w3.org/1999/xlink" width="677.348937pt" height="534.62125pt" viewBox="0 0 677.348937 534.62125" xmlns="http://www.w3.org/2000/svg" version="1.1">
 <metadata>
  <rdf:RDF xmlns:dc="http://purl.org/dc/elements/1.1/" xmlns:cc="http://creativecommons.org/ns#" xmlns:rdf="http://www.w3.org/1999/02/22-rdf-syntax-ns#">
   <cc:Work>
    <dc:type rdf:resource="http://purl.org/dc/dcmitype/StillImage"/>
    <dc:date>2025-09-24T22:55:12.687572</dc:date>
    <dc:format>image/svg+xml</dc:format>
    <dc:creator>
     <cc:Agent>
      <dc:title>Matplotlib v3.10.6, https://matplotlib.org/</dc:title>
     </cc:Agent>
    </dc:creator>
   </cc:Work>
  </rdf:RDF>
 </metadata>
 <defs>
  <style type="text/css">*{stroke-linejoin: round; stroke-linecap: butt}</style>
 </defs>
 <g id="figure_1">
  <g id="patch_1">
   <path d="M 0 534.62125 
L 677.348937 534.62125 
L 677.348937 0 
L 0 0 
L 0 534.62125 
z
" style="fill: none; opacity: 0"/>
  </g>
  <g id="axes_1">
   <g id="patch_2">
    <path d="M 536.832187 293.56 
C 536.832187 262.849622 530.782913 232.437864 519.03056 204.065174 
C 507.278207 175.692485 490.05133 149.910641 468.335813 128.195124 
C 446.620297 106.479608 420.838453 89.252731 392.465763 77.500378 
C 364.093074 65.748025 333.681315 59.69875 302.970937 59.69875 
C 272.26056 59.69875 241.848801 65.748025 213.476112 77.500378 
C 185.103422 89.252731 159.321578 106.479608 137.606062 128.195124 
C 115.890545 149.910641 98.663668 175.692485 86.911315 204.065174 
C 75.158962 232.437864 69.109687 262.849622 69.109687 293.56 
C 69.109687 324.270378 75.158962 354.682136 86.911315 383.054826 
C 98.663668 411.427515 115.890545 437.209359 137.606062 458.924876 
C 159.321578 480.640392 185.103422 497.867269 213.476112 509.619622 
C 241.848801 521.371975 272.26056 527.42125 302.970937 527.42125 
C 333.681315 527.42125 364.093074 521.371975 392.465763 509.619622 
C 420.838453 497.867269 446.620297 480.640392 468.335813 458.924876 
C 490.05133 437.209359 507.278207 411.427515 519.03056 383.054826 
C 530.782913 354.682136 536.832187 324.270378 536.832187 293.56 
M 302.970937 293.56 
C 302.970937 293.56 302.970937 293.56 302.970937 293.56 
C 302.970937 293.56 302.970937 293.56 302.970937 293.56 
C 302.970937 293.56 302.970937 293.56 302.970937 293.56 
C 302.970937 293.56 302.970937 293.56 302.970937 293.56 
C 302.970937 293.56 302.970937 293.56 302.970937 293.56 
C 302.970937 293.56 302.970937 293.56 302.970937 293.56 
C 302.970937 293.56 302.970937 293.56 302.970937 293.56 
C 302.970937 293.56 302.970937 293.56 302.970937 293.56 
C 302.970937 293.56 302.970937 293.56 302.970937 293.56 
C 302.970937 293.56 302.970937 293.56 302.970937 293.56 
C 302.970937 293.56 302.970937 293.56 302.970937 293.56 
C 302.970937 293.56 302.970937 293.56 302.970937 293.56 
C 302.970937 293.56 302.970937 293.56 302.970937 293.56 
C 302.970937 293.56 302.970937 293.56 302.970937 293.56 
C 302.970937 293.56 302.970937 293.56 302.970937 293.56 
C 302.970937 293.56 302.970937 293.56 302.970937 293.56 
L 302.970937 293.56 
z
" style="fill: none"/>
   </g>
   <g id="matplotlib.axis_1">
    <g id="xtick_1">
     <g id="line2d_1">
      <path d="M 302.970937 293.56 
L 536.832187 293.56 
" clip-path="url(#pcac3f04569)" style="fill: none; stroke-dasharray: 2.96,1.28; stroke-dashoffset: 0; stroke: #808080; stroke-opacity: 0.4; stroke-width: 0.8"/>
     </g>
     <g id="text_1">
      <!-- bleu -->
      <g transform="translate(539.280156 296.923281) scale(0.14 -0.14)">
       <defs>
        <path id="TimesNewRomanPSMT-62" d="M 984 2369 
Q 1400 2947 1881 2947 
Q 2322 2947 2650 2570 
Q 2978 2194 2978 1541 
Q 2978 778 2472 313 
Q 2038 -88 1503 -88 
Q 1253 -88 995 3 
Q 738 94 469 275 
L 469 3241 
Q 469 3728 445 3840 
Q 422 3953 372 3993 
Q 322 4034 247 4034 
Q 159 4034 28 3984 
L -16 4094 
L 844 4444 
L 984 4444 
L 984 2369 
z
M 984 2169 
L 984 456 
Q 1144 300 1314 220 
Q 1484 141 1663 141 
Q 1947 141 2192 453 
Q 2438 766 2438 1363 
Q 2438 1913 2192 2208 
Q 1947 2503 1634 2503 
Q 1469 2503 1303 2419 
Q 1178 2356 984 2169 
z
" transform="scale(0.015625)"/>
        <path id="TimesNewRomanPSMT-6c" d="M 1184 4444 
L 1184 647 
Q 1184 378 1223 290 
Q 1263 203 1344 158 
Q 1425 113 1647 113 
L 1647 0 
L 244 0 
L 244 113 
Q 441 113 512 153 
Q 584 194 625 287 
Q 666 381 666 647 
L 666 3247 
Q 666 3731 644 3842 
Q 622 3953 573 3993 
Q 525 4034 450 4034 
Q 369 4034 244 3984 
L 191 4094 
L 1044 4444 
L 1184 4444 
z
" transform="scale(0.015625)"/>
        <path id="TimesNewRomanPSMT-65" d="M 681 1784 
Q 678 1147 991 784 
Q 1303 422 1725 422 
Q 2006 422 2214 576 
Q 2422 731 2563 1106 
L 2659 1044 
Q 2594 616 2278 264 
Q 1963 -88 1488 -88 
Q 972 -88 605 314 
Q 238 716 238 1394 
Q 238 2128 614 2539 
Q 991 2950 1559 2950 
Q 2041 2950 2350 2633 
Q 2659 2316 2659 1784 
L 681 1784 
z
M 681 1966 
L 2006 1966 
Q 1991 2241 1941 2353 
Q 1863 2528 1708 2628 
Q 1553 2728 1384 2728 
Q 1125 2728 920 2526 
Q 716 2325 681 1966 
z
" transform="scale(0.015625)"/>
        <path id="TimesNewRomanPSMT-75" d="M 2709 2863 
L 2709 1128 
Q 2709 631 2732 520 
Q 2756 409 2807 365 
Q 2859 322 2928 322 
Q 3025 322 3147 375 
L 3191 266 
L 2334 -88 
L 2194 -88 
L 2194 519 
Q 1825 119 1631 15 
Q 1438 -88 1222 -88 
Q 981 -88 804 51 
Q 628 191 559 409 
Q 491 628 491 1028 
L 491 2306 
Q 491 2509 447 2587 
Q 403 2666 317 2708 
Q 231 2750 6 2747 
L 6 2863 
L 1009 2863 
L 1009 947 
Q 1009 547 1148 422 
Q 1288 297 1484 297 
Q 1619 297 1789 381 
Q 1959 466 2194 703 
L 2194 2325 
Q 2194 2569 2105 2655 
Q 2016 2741 1734 2747 
L 1734 2863 
L 2709 2863 
z
" transform="scale(0.015625)"/>
       </defs>
       <use xlink:href="#TimesNewRomanPSMT-62"/>
       <use xlink:href="#TimesNewRomanPSMT-6c" transform="translate(50 0)"/>
       <use xlink:href="#TimesNewRomanPSMT-65" transform="translate(77.783203 0)"/>
       <use xlink:href="#TimesNewRomanPSMT-75" transform="translate(122.167969 0)"/>
      </g>
     </g>
    </g>
    <g id="xtick_2">
     <g id="line2d_2">
      <path d="M 302.970937 293.56 
L 419.901563 91.030217 
" clip-path="url(#pcac3f04569)" style="fill: none; stroke-dasharray: 2.96,1.28; stroke-dashoffset: 0; stroke: #808080; stroke-opacity: 0.4; stroke-width: 0.8"/>
     </g>
     <g id="text_2">
      <!-- coherence -->
      <g transform="translate(398.784063 81.836129) scale(0.14 -0.14)">
       <defs>
        <path id="TimesNewRomanPSMT-63" d="M 2631 1088 
Q 2516 522 2178 217 
Q 1841 -88 1431 -88 
Q 944 -88 581 321 
Q 219 731 219 1428 
Q 219 2103 620 2525 
Q 1022 2947 1584 2947 
Q 2006 2947 2278 2723 
Q 2550 2500 2550 2259 
Q 2550 2141 2473 2067 
Q 2397 1994 2259 1994 
Q 2075 1994 1981 2113 
Q 1928 2178 1911 2362 
Q 1894 2547 1784 2644 
Q 1675 2738 1481 2738 
Q 1169 2738 978 2506 
Q 725 2200 725 1697 
Q 725 1184 976 792 
Q 1228 400 1656 400 
Q 1963 400 2206 609 
Q 2378 753 2541 1131 
L 2631 1088 
z
" transform="scale(0.015625)"/>
        <path id="TimesNewRomanPSMT-6f" d="M 1600 2947 
Q 2250 2947 2644 2453 
Q 2978 2031 2978 1484 
Q 2978 1100 2793 706 
Q 2609 313 2286 112 
Q 1963 -88 1566 -88 
Q 919 -88 538 428 
Q 216 863 216 1403 
Q 216 1797 411 2186 
Q 606 2575 925 2761 
Q 1244 2947 1600 2947 
z
M 1503 2744 
Q 1338 2744 1170 2645 
Q 1003 2547 900 2300 
Q 797 2053 797 1666 
Q 797 1041 1045 587 
Q 1294 134 1700 134 
Q 2003 134 2200 384 
Q 2397 634 2397 1244 
Q 2397 2006 2069 2444 
Q 1847 2744 1503 2744 
z
" transform="scale(0.015625)"/>
        <path id="TimesNewRomanPSMT-68" d="M 1041 4444 
L 1041 2350 
Q 1388 2731 1591 2839 
Q 1794 2947 1997 2947 
Q 2241 2947 2416 2812 
Q 2591 2678 2675 2391 
Q 2734 2191 2734 1659 
L 2734 647 
Q 2734 375 2778 275 
Q 2809 200 2884 156 
Q 2959 113 3159 113 
L 3159 0 
L 1753 0 
L 1753 113 
L 1819 113 
Q 2019 113 2097 173 
Q 2175 234 2206 353 
Q 2216 403 2216 647 
L 2216 1659 
Q 2216 2128 2167 2275 
Q 2119 2422 2012 2495 
Q 1906 2569 1756 2569 
Q 1603 2569 1437 2487 
Q 1272 2406 1041 2159 
L 1041 647 
Q 1041 353 1073 281 
Q 1106 209 1195 161 
Q 1284 113 1503 113 
L 1503 0 
L 84 0 
L 84 113 
Q 275 113 384 172 
Q 447 203 484 290 
Q 522 378 522 647 
L 522 3238 
Q 522 3728 498 3840 
Q 475 3953 426 3993 
Q 378 4034 297 4034 
Q 231 4034 84 3984 
L 41 4094 
L 897 4444 
L 1041 4444 
z
" transform="scale(0.015625)"/>
        <path id="TimesNewRomanPSMT-72" d="M 1038 2947 
L 1038 2303 
Q 1397 2947 1775 2947 
Q 1947 2947 2059 2842 
Q 2172 2738 2172 2600 
Q 2172 2478 2090 2393 
Q 2009 2309 1897 2309 
Q 1788 2309 1652 2417 
Q 1516 2525 1450 2525 
Q 1394 2525 1328 2463 
Q 1188 2334 1038 2041 
L 1038 669 
Q 1038 431 1097 309 
Q 1138 225 1241 169 
Q 1344 113 1538 113 
L 1538 0 
L 72 0 
L 72 113 
Q 291 113 397 181 
Q 475 231 506 341 
Q 522 394 522 644 
L 522 1753 
Q 522 2253 501 2348 
Q 481 2444 426 2487 
Q 372 2531 291 2531 
Q 194 2531 72 2484 
L 41 2597 
L 906 2947 
L 1038 2947 
z
" transform="scale(0.015625)"/>
        <path id="TimesNewRomanPSMT-6e" d="M 1034 2341 
Q 1538 2947 1994 2947 
Q 2228 2947 2397 2830 
Q 2566 2713 2666 2444 
Q 2734 2256 2734 1869 
L 2734 647 
Q 2734 375 2778 278 
Q 2813 200 2889 156 
Q 2966 113 3172 113 
L 3172 0 
L 1756 0 
L 1756 113 
L 1816 113 
Q 2016 113 2095 173 
Q 2175 234 2206 353 
Q 2219 400 2219 647 
L 2219 1819 
Q 2219 2209 2117 2386 
Q 2016 2563 1775 2563 
Q 1403 2563 1034 2156 
L 1034 647 
Q 1034 356 1069 288 
Q 1113 197 1189 155 
Q 1266 113 1500 113 
L 1500 0 
L 84 0 
L 84 113 
L 147 113 
Q 366 113 442 223 
Q 519 334 519 647 
L 519 1709 
Q 519 2225 495 2337 
Q 472 2450 423 2490 
Q 375 2531 294 2531 
Q 206 2531 84 2484 
L 38 2597 
L 900 2947 
L 1034 2947 
L 1034 2341 
z
" transform="scale(0.015625)"/>
       </defs>
       <use xlink:href="#TimesNewRomanPSMT-63"/>
       <use xlink:href="#TimesNewRomanPSMT-6f" transform="translate(44.384766 0)"/>
       <use xlink:href="#TimesNewRomanPSMT-68" transform="translate(94.384766 0)"/>
       <use xlink:href="#TimesNewRomanPSMT-65" transform="translate(144.384766 0)"/>
       <use xlink:href="#TimesNewRomanPSMT-72" transform="translate(188.769531 0)"/>
       <use xlink:href="#TimesNewRomanPSMT-65" transform="translate(222.070312 0)"/>
       <use xlink:href="#TimesNewRomanPSMT-6e" transform="translate(266.455078 0)"/>
       <use xlink:href="#TimesNewRomanPSMT-63" transform="translate(316.455078 0)"/>
       <use xlink:href="#TimesNewRomanPSMT-65" transform="translate(360.839844 0)"/>
      </g>
     </g>
    </g>
    <g id="xtick_3">
     <g id="line2d_3">
      <path d="M 302.970937 293.56 
L 186.040313 91.030217 
" clip-path="url(#pcac3f04569)" style="fill: none; stroke-dasharray: 2.96,1.28; stroke-dashoffset: 0; stroke: #808080; stroke-opacity: 0.4; stroke-width: 0.8"/>
     </g>
     <g id="text_3">
      <!-- completeness -->
      <g transform="translate(141.077813 81.836129) scale(0.14 -0.14)">
       <defs>
        <path id="TimesNewRomanPSMT-6d" d="M 1050 2338 
Q 1363 2650 1419 2697 
Q 1559 2816 1721 2881 
Q 1884 2947 2044 2947 
Q 2313 2947 2506 2790 
Q 2700 2634 2766 2338 
Q 3088 2713 3309 2830 
Q 3531 2947 3766 2947 
Q 3994 2947 4170 2830 
Q 4347 2713 4450 2447 
Q 4519 2266 4519 1878 
L 4519 647 
Q 4519 378 4559 278 
Q 4591 209 4675 161 
Q 4759 113 4950 113 
L 4950 0 
L 3538 0 
L 3538 113 
L 3597 113 
Q 3781 113 3884 184 
Q 3956 234 3988 344 
Q 4000 397 4000 647 
L 4000 1878 
Q 4000 2228 3916 2372 
Q 3794 2572 3525 2572 
Q 3359 2572 3192 2489 
Q 3025 2406 2788 2181 
L 2781 2147 
L 2788 2013 
L 2788 647 
Q 2788 353 2820 281 
Q 2853 209 2943 161 
Q 3034 113 3253 113 
L 3253 0 
L 1806 0 
L 1806 113 
Q 2044 113 2133 169 
Q 2222 225 2256 338 
Q 2272 391 2272 647 
L 2272 1878 
Q 2272 2228 2169 2381 
Q 2031 2581 1784 2581 
Q 1616 2581 1450 2491 
Q 1191 2353 1050 2181 
L 1050 647 
Q 1050 366 1089 281 
Q 1128 197 1204 155 
Q 1281 113 1516 113 
L 1516 0 
L 100 0 
L 100 113 
Q 297 113 375 155 
Q 453 197 493 289 
Q 534 381 534 647 
L 534 1741 
Q 534 2213 506 2350 
Q 484 2453 437 2492 
Q 391 2531 309 2531 
Q 222 2531 100 2484 
L 53 2597 
L 916 2947 
L 1050 2947 
L 1050 2338 
z
" transform="scale(0.015625)"/>
        <path id="TimesNewRomanPSMT-70" d="M -6 2578 
L 875 2934 
L 994 2934 
L 994 2266 
Q 1216 2644 1439 2795 
Q 1663 2947 1909 2947 
Q 2341 2947 2628 2609 
Q 2981 2197 2981 1534 
Q 2981 794 2556 309 
Q 2206 -88 1675 -88 
Q 1444 -88 1275 -22 
Q 1150 25 994 166 
L 994 -706 
Q 994 -1000 1030 -1079 
Q 1066 -1159 1155 -1206 
Q 1244 -1253 1478 -1253 
L 1478 -1369 
L -22 -1369 
L -22 -1253 
L 56 -1253 
Q 228 -1256 350 -1188 
Q 409 -1153 442 -1076 
Q 475 -1000 475 -688 
L 475 2019 
Q 475 2297 450 2372 
Q 425 2447 370 2484 
Q 316 2522 222 2522 
Q 147 2522 31 2478 
L -6 2578 
z
M 994 2081 
L 994 1013 
Q 994 666 1022 556 
Q 1066 375 1236 237 
Q 1406 100 1666 100 
Q 1978 100 2172 344 
Q 2425 663 2425 1241 
Q 2425 1897 2138 2250 
Q 1938 2494 1663 2494 
Q 1513 2494 1366 2419 
Q 1253 2363 994 2081 
z
" transform="scale(0.015625)"/>
        <path id="TimesNewRomanPSMT-74" d="M 1031 3803 
L 1031 2863 
L 1700 2863 
L 1700 2644 
L 1031 2644 
L 1031 788 
Q 1031 509 1111 412 
Q 1191 316 1316 316 
Q 1419 316 1516 380 
Q 1613 444 1666 569 
L 1788 569 
Q 1678 263 1478 108 
Q 1278 -47 1066 -47 
Q 922 -47 784 33 
Q 647 113 581 261 
Q 516 409 516 719 
L 516 2644 
L 63 2644 
L 63 2747 
Q 234 2816 414 2980 
Q 594 3144 734 3369 
Q 806 3488 934 3803 
L 1031 3803 
z
" transform="scale(0.015625)"/>
        <path id="TimesNewRomanPSMT-73" d="M 2050 2947 
L 2050 1972 
L 1947 1972 
Q 1828 2431 1642 2597 
Q 1456 2763 1169 2763 
Q 950 2763 815 2647 
Q 681 2531 681 2391 
Q 681 2216 781 2091 
Q 878 1963 1175 1819 
L 1631 1597 
Q 2266 1288 2266 781 
Q 2266 391 1970 151 
Q 1675 -88 1309 -88 
Q 1047 -88 709 6 
Q 606 38 541 38 
Q 469 38 428 -44 
L 325 -44 
L 325 978 
L 428 978 
Q 516 541 762 319 
Q 1009 97 1316 97 
Q 1531 97 1667 223 
Q 1803 350 1803 528 
Q 1803 744 1651 891 
Q 1500 1038 1047 1263 
Q 594 1488 453 1669 
Q 313 1847 313 2119 
Q 313 2472 555 2709 
Q 797 2947 1181 2947 
Q 1350 2947 1591 2875 
Q 1750 2828 1803 2828 
Q 1853 2828 1881 2850 
Q 1909 2872 1947 2947 
L 2050 2947 
z
" transform="scale(0.015625)"/>
       </defs>
       <use xlink:href="#TimesNewRomanPSMT-63"/>
       <use xlink:href="#TimesNewRomanPSMT-6f" transform="translate(44.384766 0)"/>
       <use xlink:href="#TimesNewRomanPSMT-6d" transform="translate(94.384766 0)"/>
       <use xlink:href="#TimesNewRomanPSMT-70" transform="translate(172.167969 0)"/>
       <use xlink:href="#TimesNewRomanPSMT-6c" transform="translate(222.167969 0)"/>
       <use xlink:href="#TimesNewRomanPSMT-65" transform="translate(249.951172 0)"/>
       <use xlink:href="#TimesNewRomanPSMT-74" transform="translate(294.335938 0)"/>
       <use xlink:href="#TimesNewRomanPSMT-65" transform="translate(322.119141 0)"/>
       <use xlink:href="#TimesNewRomanPSMT-6e" transform="translate(366.503906 0)"/>
       <use xlink:href="#TimesNewRomanPSMT-65" transform="translate(416.503906 0)"/>
       <use xlink:href="#TimesNewRomanPSMT-73" transform="translate(460.888672 0)"/>
       <use xlink:href="#TimesNewRomanPSMT-73" transform="translate(499.804688 0)"/>
      </g>
     </g>
    </g>
    <g id="xtick_4">
     <g id="line2d_4">
      <path d="M 302.970937 293.56 
L 69.109688 293.56 
" clip-path="url(#pcac3f04569)" style="fill: none; stroke-dasharray: 2.96,1.28; stroke-dashoffset: 0; stroke: #808080; stroke-opacity: 0.4; stroke-width: 0.8"/>
     </g>
     <g id="text_4">
      <!-- factual_accuracy -->
      <g transform="translate(7.2 296.910156) scale(0.14 -0.14)">
       <defs>
        <path id="TimesNewRomanPSMT-66" d="M 1319 2638 
L 1319 756 
Q 1319 356 1406 250 
Q 1522 113 1716 113 
L 1975 113 
L 1975 0 
L 266 0 
L 266 113 
L 394 113 
Q 519 113 622 175 
Q 725 238 764 344 
Q 803 450 803 756 
L 803 2638 
L 247 2638 
L 247 2863 
L 803 2863 
L 803 3050 
Q 803 3478 940 3775 
Q 1078 4072 1361 4255 
Q 1644 4438 1997 4438 
Q 2325 4438 2600 4225 
Q 2781 4084 2781 3909 
Q 2781 3816 2700 3733 
Q 2619 3650 2525 3650 
Q 2453 3650 2373 3701 
Q 2294 3753 2178 3923 
Q 2063 4094 1966 4153 
Q 1869 4213 1750 4213 
Q 1606 4213 1506 4136 
Q 1406 4059 1362 3898 
Q 1319 3738 1319 3069 
L 1319 2863 
L 2056 2863 
L 2056 2638 
L 1319 2638 
z
" transform="scale(0.015625)"/>
        <path id="TimesNewRomanPSMT-61" d="M 1822 413 
Q 1381 72 1269 19 
Q 1100 -59 909 -59 
Q 613 -59 420 144 
Q 228 347 228 678 
Q 228 888 322 1041 
Q 450 1253 767 1440 
Q 1084 1628 1822 1897 
L 1822 2009 
Q 1822 2438 1686 2597 
Q 1550 2756 1291 2756 
Q 1094 2756 978 2650 
Q 859 2544 859 2406 
L 866 2225 
Q 866 2081 792 2003 
Q 719 1925 600 1925 
Q 484 1925 411 2006 
Q 338 2088 338 2228 
Q 338 2497 613 2722 
Q 888 2947 1384 2947 
Q 1766 2947 2009 2819 
Q 2194 2722 2281 2516 
Q 2338 2381 2338 1966 
L 2338 994 
Q 2338 584 2353 492 
Q 2369 400 2405 369 
Q 2441 338 2488 338 
Q 2538 338 2575 359 
Q 2641 400 2828 588 
L 2828 413 
Q 2478 -56 2159 -56 
Q 2006 -56 1915 50 
Q 1825 156 1822 413 
z
M 1822 616 
L 1822 1706 
Q 1350 1519 1213 1441 
Q 966 1303 859 1153 
Q 753 1003 753 825 
Q 753 600 887 451 
Q 1022 303 1197 303 
Q 1434 303 1822 616 
z
" transform="scale(0.015625)"/>
        <path id="TimesNewRomanPSMT-5f" d="M 3256 -1381 
L -53 -1381 
L -53 -1119 
L 3256 -1119 
L 3256 -1381 
z
" transform="scale(0.015625)"/>
        <path id="TimesNewRomanPSMT-79" d="M 38 2863 
L 1372 2863 
L 1372 2747 
L 1306 2747 
Q 1166 2747 1095 2686 
Q 1025 2625 1025 2534 
Q 1025 2413 1128 2197 
L 1825 753 
L 2466 2334 
Q 2519 2463 2519 2588 
Q 2519 2644 2497 2672 
Q 2472 2706 2419 2726 
Q 2366 2747 2231 2747 
L 2231 2863 
L 3163 2863 
L 3163 2747 
Q 3047 2734 2984 2696 
Q 2922 2659 2847 2556 
Q 2819 2513 2741 2316 
L 1575 -541 
Q 1406 -956 1132 -1168 
Q 859 -1381 606 -1381 
Q 422 -1381 303 -1275 
Q 184 -1169 184 -1031 
Q 184 -900 270 -820 
Q 356 -741 506 -741 
Q 609 -741 788 -809 
Q 913 -856 944 -856 
Q 1038 -856 1148 -759 
Q 1259 -663 1372 -384 
L 1575 113 
L 547 2272 
Q 500 2369 397 2513 
Q 319 2622 269 2659 
Q 197 2709 38 2747 
L 38 2863 
z
" transform="scale(0.015625)"/>
       </defs>
       <use xlink:href="#TimesNewRomanPSMT-66"/>
       <use xlink:href="#TimesNewRomanPSMT-61" transform="translate(33.300781 0)"/>
       <use xlink:href="#TimesNewRomanPSMT-63" transform="translate(77.685547 0)"/>
       <use xlink:href="#TimesNewRomanPSMT-74" transform="translate(122.070312 0)"/>
       <use xlink:href="#TimesNewRomanPSMT-75" transform="translate(149.853516 0)"/>
       <use xlink:href="#TimesNewRomanPSMT-61" transform="translate(199.853516 0)"/>
       <use xlink:href="#TimesNewRomanPSMT-6c" transform="translate(244.238281 0)"/>
       <use xlink:href="#TimesNewRomanPSMT-5f" transform="translate(272.021484 0)"/>
       <use xlink:href="#TimesNewRomanPSMT-61" transform="translate(322.021484 0)"/>
       <use xlink:href="#TimesNewRomanPSMT-63" transform="translate(366.40625 0)"/>
       <use xlink:href="#TimesNewRomanPSMT-63" transform="translate(410.791016 0)"/>
       <use xlink:href="#TimesNewRomanPSMT-75" transform="translate(455.175781 0)"/>
       <use xlink:href="#TimesNewRomanPSMT-72" transform="translate(505.175781 0)"/>
       <use xlink:href="#TimesNewRomanPSMT-61" transform="translate(538.476562 0)"/>
       <use xlink:href="#TimesNewRomanPSMT-63" transform="translate(582.861328 0)"/>
       <use xlink:href="#TimesNewRomanPSMT-79" transform="translate(627.246094 0)"/>
      </g>
     </g>
    </g>
    <g id="xtick_5">
     <g id="line2d_5">
      <path d="M 302.970937 293.56 
L 186.040312 496.089783 
" clip-path="url(#pcac3f04569)" style="fill: none; stroke-dasharray: 2.96,1.28; stroke-dashoffset: 0; stroke: #808080; stroke-opacity: 0.4; stroke-width: 0.8"/>
     </g>
     <g id="text_5">
      <!-- helpfulness -->
      <g transform="translate(146.906406 512.010433) scale(0.14 -0.14)">
       <use xlink:href="#TimesNewRomanPSMT-68"/>
       <use xlink:href="#TimesNewRomanPSMT-65" transform="translate(50 0)"/>
       <use xlink:href="#TimesNewRomanPSMT-6c" transform="translate(94.384766 0)"/>
       <use xlink:href="#TimesNewRomanPSMT-70" transform="translate(122.167969 0)"/>
       <use xlink:href="#TimesNewRomanPSMT-66" transform="translate(172.167969 0)"/>
       <use xlink:href="#TimesNewRomanPSMT-75" transform="translate(205.46875 0)"/>
       <use xlink:href="#TimesNewRomanPSMT-6c" transform="translate(255.46875 0)"/>
       <use xlink:href="#TimesNewRomanPSMT-6e" transform="translate(283.251953 0)"/>
       <use xlink:href="#TimesNewRomanPSMT-65" transform="translate(333.251953 0)"/>
       <use xlink:href="#TimesNewRomanPSMT-73" transform="translate(377.636719 0)"/>
       <use xlink:href="#TimesNewRomanPSMT-73" transform="translate(416.552734 0)"/>
      </g>
     </g>
    </g>
    <g id="xtick_6">
     <g id="line2d_6">
      <path d="M 302.970937 293.56 
L 419.901563 496.089783 
" clip-path="url(#pcac3f04569)" style="fill: none; stroke-dasharray: 2.96,1.28; stroke-dashoffset: 0; stroke: #808080; stroke-opacity: 0.4; stroke-width: 0.8"/>
     </g>
     <g id="text_6">
      <!-- rouge_l -->
      <g transform="translate(405.76875 511.997308) scale(0.14 -0.14)">
       <defs>
        <path id="TimesNewRomanPSMT-67" d="M 966 1044 
Q 703 1172 562 1401 
Q 422 1631 422 1909 
Q 422 2334 742 2640 
Q 1063 2947 1563 2947 
Q 1972 2947 2272 2747 
L 2878 2747 
Q 3013 2747 3034 2739 
Q 3056 2731 3066 2713 
Q 3084 2684 3084 2613 
Q 3084 2531 3069 2500 
Q 3059 2484 3036 2475 
Q 3013 2466 2878 2466 
L 2506 2466 
Q 2681 2241 2681 1891 
Q 2681 1491 2375 1206 
Q 2069 922 1553 922 
Q 1341 922 1119 984 
Q 981 866 932 777 
Q 884 688 884 625 
Q 884 572 936 522 
Q 988 472 1138 450 
Q 1225 438 1575 428 
Q 2219 413 2409 384 
Q 2700 344 2873 169 
Q 3047 -6 3047 -263 
Q 3047 -616 2716 -925 
Q 2228 -1381 1444 -1381 
Q 841 -1381 425 -1109 
Q 191 -953 191 -784 
Q 191 -709 225 -634 
Q 278 -519 444 -313 
Q 466 -284 763 25 
Q 600 122 533 198 
Q 466 275 466 372 
Q 466 481 555 628 
Q 644 775 966 1044 
z
M 1509 2797 
Q 1278 2797 1122 2612 
Q 966 2428 966 2047 
Q 966 1553 1178 1281 
Q 1341 1075 1591 1075 
Q 1828 1075 1981 1253 
Q 2134 1431 2134 1813 
Q 2134 2309 1919 2591 
Q 1759 2797 1509 2797 
z
M 934 0 
Q 788 -159 713 -296 
Q 638 -434 638 -550 
Q 638 -700 819 -813 
Q 1131 -1006 1722 -1006 
Q 2284 -1006 2551 -807 
Q 2819 -609 2819 -384 
Q 2819 -222 2659 -153 
Q 2497 -84 2016 -72 
Q 1313 -53 934 0 
z
" transform="scale(0.015625)"/>
       </defs>
       <use xlink:href="#TimesNewRomanPSMT-72"/>
       <use xlink:href="#TimesNewRomanPSMT-6f" transform="translate(33.300781 0)"/>
       <use xlink:href="#TimesNewRomanPSMT-75" transform="translate(83.300781 0)"/>
       <use xlink:href="#TimesNewRomanPSMT-67" transform="translate(133.300781 0)"/>
       <use xlink:href="#TimesNewRomanPSMT-65" transform="translate(183.300781 0)"/>
       <use xlink:href="#TimesNewRomanPSMT-5f" transform="translate(227.685547 0)"/>
       <use xlink:href="#TimesNewRomanPSMT-6c" transform="translate(277.685547 0)"/>
      </g>
     </g>
    </g>
   </g>
   <g id="matplotlib.axis_2">
    <g id="ytick_1">
     <g id="line2d_7">
      <path d="M 308.456623 293.56 
C 308.456623 292.839626 308.314725 292.126257 308.03905 291.460719 
C 307.763375 290.79518 307.359284 290.190415 306.849903 289.681034 
C 306.340522 289.171653 305.735757 288.767562 305.070219 288.491887 
C 304.40468 288.216212 303.691311 288.074314 302.970937 288.074314 
C 302.250564 288.074314 301.537195 288.216212 300.871656 288.491887 
C 300.206118 288.767562 299.601353 289.171653 299.091972 289.681034 
C 298.582591 290.190415 298.1785 290.79518 297.902825 291.460719 
C 297.62715 292.126257 297.485252 292.839626 297.485252 293.56 
C 297.485252 294.280374 297.62715 294.993743 297.902825 295.659281 
C 298.1785 296.32482 298.582591 296.929585 299.091972 297.438966 
C 299.601353 297.948347 300.206118 298.352438 300.871656 298.628113 
C 301.537195 298.903788 302.250564 299.045686 302.970937 299.045686 
C 303.691311 299.045686 304.40468 298.903788 305.070219 298.628113 
C 305.735757 298.352438 306.340522 297.948347 306.849903 297.438966 
C 307.359284 296.929585 307.763375 296.32482 308.03905 295.659281 
C 308.314725 294.993743 308.456623 294.280374 308.456623 293.56 
" clip-path="url(#pcac3f04569)" style="fill: none; stroke-dasharray: 2.96,1.28; stroke-dashoffset: 0; stroke: #808080; stroke-opacity: 0.4; stroke-width: 0.8"/>
     </g>
     <g id="text_7">
      <!-- −80 -->
      <g transform="translate(308.03905 288.466031) scale(0.14 -0.14)">
       <defs>
        <path id="TimesNewRomanPSMT-2212" d="M 3484 2000 
L 116 2000 
L 116 2256 
L 3484 2256 
L 3484 2000 
z
" transform="scale(0.015625)"/>
        <path id="TimesNewRomanPSMT-38" d="M 1228 2134 
Q 725 2547 579 2797 
Q 434 3047 434 3316 
Q 434 3728 753 4026 
Q 1072 4325 1600 4325 
Q 2113 4325 2425 4047 
Q 2738 3769 2738 3413 
Q 2738 3175 2569 2928 
Q 2400 2681 1866 2347 
Q 2416 1922 2594 1678 
Q 2831 1359 2831 1006 
Q 2831 559 2490 242 
Q 2150 -75 1597 -75 
Q 994 -75 656 303 
Q 388 606 388 966 
Q 388 1247 577 1523 
Q 766 1800 1228 2134 
z
M 1719 2469 
Q 2094 2806 2194 3001 
Q 2294 3197 2294 3444 
Q 2294 3772 2109 3958 
Q 1925 4144 1606 4144 
Q 1288 4144 1088 3959 
Q 888 3775 888 3528 
Q 888 3366 970 3203 
Q 1053 3041 1206 2894 
L 1719 2469 
z
M 1375 2016 
Q 1116 1797 991 1539 
Q 866 1281 866 981 
Q 866 578 1086 336 
Q 1306 94 1647 94 
Q 1984 94 2187 284 
Q 2391 475 2391 747 
Q 2391 972 2272 1150 
Q 2050 1481 1375 2016 
z
" transform="scale(0.015625)"/>
        <path id="TimesNewRomanPSMT-30" d="M 231 2094 
Q 231 2819 450 3342 
Q 669 3866 1031 4122 
Q 1313 4325 1613 4325 
Q 2100 4325 2488 3828 
Q 2972 3213 2972 2159 
Q 2972 1422 2759 906 
Q 2547 391 2217 158 
Q 1888 -75 1581 -75 
Q 975 -75 572 641 
Q 231 1244 231 2094 
z
M 844 2016 
Q 844 1141 1059 588 
Q 1238 122 1591 122 
Q 1759 122 1940 273 
Q 2122 425 2216 781 
Q 2359 1319 2359 2297 
Q 2359 3022 2209 3506 
Q 2097 3866 1919 4016 
Q 1791 4119 1609 4119 
Q 1397 4119 1231 3928 
Q 1006 3669 925 3112 
Q 844 2556 844 2016 
z
" transform="scale(0.015625)"/>
       </defs>
       <use xlink:href="#TimesNewRomanPSMT-2212"/>
       <use xlink:href="#TimesNewRomanPSMT-38" transform="translate(56.396484 0)"/>
       <use xlink:href="#TimesNewRomanPSMT-30" transform="translate(106.396484 0)"/>
      </g>
     </g>
    </g>
    <g id="ytick_2">
     <g id="line2d_8">
      <path d="M 336.317858 293.56 
C 336.317858 289.180923 335.455275 284.844426 333.779475 280.798686 
C 332.103675 276.752946 329.647247 273.076642 326.550771 269.980166 
C 323.454296 266.883691 319.777992 264.427263 315.732252 262.751463 
C 311.686511 261.075662 307.350015 260.213079 302.970937 260.213079 
C 298.59186 260.213079 294.255364 261.075662 290.209623 262.751463 
C 286.163883 264.427263 282.487579 266.883691 279.391104 269.980166 
C 276.294628 273.076642 273.8382 276.752946 272.1624 280.798686 
C 270.4866 284.844426 269.624017 289.180923 269.624017 293.56 
C 269.624017 297.939077 270.4866 302.275574 272.1624 306.321314 
C 273.8382 310.367054 276.294628 314.043358 279.391104 317.139834 
C 282.487579 320.236309 286.163883 322.692737 290.209623 324.368537 
C 294.255364 326.044338 298.59186 326.906921 302.970937 326.906921 
C 307.350015 326.906921 311.686511 326.044338 315.732252 324.368537 
C 319.777992 322.692737 323.454296 320.236309 326.550771 317.139834 
C 329.647247 314.043358 332.103675 310.367054 333.779475 306.321314 
C 335.455275 302.275574 336.317858 297.939077 336.317858 293.56 
" clip-path="url(#pcac3f04569)" style="fill: none; stroke-dasharray: 2.96,1.28; stroke-dashoffset: 0; stroke: #808080; stroke-opacity: 0.4; stroke-width: 0.8"/>
     </g>
     <g id="text_8">
      <!-- −60 -->
      <g transform="translate(333.779475 277.803998) scale(0.14 -0.14)">
       <defs>
        <path id="TimesNewRomanPSMT-36" d="M 2869 4325 
L 2869 4209 
Q 2456 4169 2195 4045 
Q 1934 3922 1679 3669 
Q 1425 3416 1258 3105 
Q 1091 2794 978 2366 
Q 1428 2675 1881 2675 
Q 2316 2675 2634 2325 
Q 2953 1975 2953 1425 
Q 2953 894 2631 456 
Q 2244 -75 1606 -75 
Q 1172 -75 869 213 
Q 275 772 275 1663 
Q 275 2231 503 2743 
Q 731 3256 1154 3653 
Q 1578 4050 1965 4187 
Q 2353 4325 2688 4325 
L 2869 4325 
z
M 925 2138 
Q 869 1716 869 1456 
Q 869 1156 980 804 
Q 1091 453 1309 247 
Q 1469 100 1697 100 
Q 1969 100 2183 356 
Q 2397 613 2397 1088 
Q 2397 1622 2184 2012 
Q 1972 2403 1581 2403 
Q 1463 2403 1327 2353 
Q 1191 2303 925 2138 
z
" transform="scale(0.015625)"/>
       </defs>
       <use xlink:href="#TimesNewRomanPSMT-2212"/>
       <use xlink:href="#TimesNewRomanPSMT-36" transform="translate(56.396484 0)"/>
       <use xlink:href="#TimesNewRomanPSMT-30" transform="translate(106.396484 0)"/>
      </g>
     </g>
    </g>
    <g id="ytick_3">
     <g id="line2d_9">
      <path d="M 364.179093 293.56 
C 364.179093 285.522219 362.595825 277.562595 359.5199 270.136653 
C 356.443974 262.710711 351.935209 255.962868 346.251639 250.279298 
C 340.56807 244.595729 333.820226 240.086964 326.394284 237.011038 
C 318.968343 233.935112 311.008719 232.351845 302.970937 232.351845 
C 294.933156 232.351845 286.973532 233.935112 279.547591 237.011038 
C 272.121649 240.086964 265.373805 244.595729 259.690236 250.279298 
C 254.006666 255.962868 249.497901 262.710711 246.421975 270.136653 
C 243.34605 277.562595 241.762782 285.522219 241.762782 293.56 
C 241.762782 301.597781 243.34605 309.557405 246.421975 316.983347 
C 249.497901 324.409289 254.006666 331.157132 259.690236 336.840702 
C 265.373805 342.524271 272.121649 347.033036 279.547591 350.108962 
C 286.973532 353.184888 294.933156 354.768155 302.970937 354.768155 
C 311.008719 354.768155 318.968343 353.184888 326.394284 350.108962 
C 333.820226 347.033036 340.56807 342.524271 346.251639 336.840702 
C 351.935209 331.157132 356.443974 324.409289 359.5199 316.983347 
C 362.595825 309.557405 364.179093 301.597781 364.179093 293.56 
" clip-path="url(#pcac3f04569)" style="fill: none; stroke-dasharray: 2.96,1.28; stroke-dashoffset: 0; stroke: #808080; stroke-opacity: 0.4; stroke-width: 0.8"/>
     </g>
     <g id="text_9">
      <!-- −40 -->
      <g transform="translate(359.5199 267.141966) scale(0.14 -0.14)">
       <defs>
        <path id="TimesNewRomanPSMT-34" d="M 2978 1563 
L 2978 1119 
L 2409 1119 
L 2409 0 
L 1894 0 
L 1894 1119 
L 100 1119 
L 100 1519 
L 2066 4325 
L 2409 4325 
L 2409 1563 
L 2978 1563 
z
M 1894 1563 
L 1894 3666 
L 406 1563 
L 1894 1563 
z
" transform="scale(0.015625)"/>
       </defs>
       <use xlink:href="#TimesNewRomanPSMT-2212"/>
       <use xlink:href="#TimesNewRomanPSMT-34" transform="translate(56.396484 0)"/>
       <use xlink:href="#TimesNewRomanPSMT-30" transform="translate(106.396484 0)"/>
      </g>
     </g>
    </g>
    <g id="ytick_4">
     <g id="line2d_10">
      <path d="M 392.040328 293.56 
C 392.040328 281.863515 389.736375 270.280763 385.260324 259.47462 
C 380.784273 248.668477 374.223171 238.849094 365.952507 230.57843 
C 357.681843 222.307766 347.862461 215.746665 337.056317 211.270613 
C 326.250174 206.794562 314.667423 204.49061 302.970937 204.49061 
C 291.274452 204.49061 279.691701 206.794562 268.885558 211.270613 
C 258.079414 215.746665 248.260032 222.307766 239.989368 230.57843 
C 231.718704 238.849094 225.157602 248.668477 220.681551 259.47462 
C 216.2055 270.280763 213.901547 281.863515 213.901547 293.56 
C 213.901547 305.256485 216.2055 316.839237 220.681551 327.64538 
C 225.157602 338.451523 231.718704 348.270906 239.989368 356.54157 
C 248.260032 364.812234 258.079414 371.373335 268.885558 375.849387 
C 279.691701 380.325438 291.274452 382.62939 302.970937 382.62939 
C 314.667423 382.62939 326.250174 380.325438 337.056317 375.849387 
C 347.862461 371.373335 357.681843 364.812234 365.952507 356.54157 
C 374.223171 348.270906 380.784273 338.451523 385.260324 327.64538 
C 389.736375 316.839237 392.040328 305.256485 392.040328 293.56 
" clip-path="url(#pcac3f04569)" style="fill: none; stroke-dasharray: 2.96,1.28; stroke-dashoffset: 0; stroke: #808080; stroke-opacity: 0.4; stroke-width: 0.8"/>
     </g>
     <g id="text_10">
      <!-- −20 -->
      <g transform="translate(385.260324 256.479933) scale(0.14 -0.14)">
       <defs>
        <path id="TimesNewRomanPSMT-32" d="M 2934 816 
L 2638 0 
L 138 0 
L 138 116 
Q 1241 1122 1691 1759 
Q 2141 2397 2141 2925 
Q 2141 3328 1894 3587 
Q 1647 3847 1303 3847 
Q 991 3847 742 3664 
Q 494 3481 375 3128 
L 259 3128 
Q 338 3706 661 4015 
Q 984 4325 1469 4325 
Q 1984 4325 2329 3994 
Q 2675 3663 2675 3213 
Q 2675 2891 2525 2569 
Q 2294 2063 1775 1497 
Q 997 647 803 472 
L 1909 472 
Q 2247 472 2383 497 
Q 2519 522 2628 598 
Q 2738 675 2819 816 
L 2934 816 
z
" transform="scale(0.015625)"/>
       </defs>
       <use xlink:href="#TimesNewRomanPSMT-2212"/>
       <use xlink:href="#TimesNewRomanPSMT-32" transform="translate(56.396484 0)"/>
       <use xlink:href="#TimesNewRomanPSMT-30" transform="translate(106.396484 0)"/>
      </g>
     </g>
    </g>
    <g id="ytick_5">
     <g id="line2d_11">
      <path d="M 419.901562 293.56 
C 419.901562 278.204811 416.876925 262.998932 411.000749 248.812587 
C 405.124572 234.626242 396.511134 221.73532 385.653375 210.877562 
C 374.795617 200.019804 361.904695 191.406365 347.71835 185.530189 
C 333.532006 179.654012 318.326126 176.629375 302.970937 176.629375 
C 287.615749 176.629375 272.409869 179.654012 258.223525 185.530189 
C 244.03718 191.406365 231.146258 200.019804 220.2885 210.877562 
C 209.430741 221.73532 200.817303 234.626242 194.941126 248.812587 
C 189.06495 262.998932 186.040312 278.204811 186.040312 293.56 
C 186.040312 308.915189 189.06495 324.121068 194.941126 338.307413 
C 200.817303 352.493758 209.430741 365.38468 220.2885 376.242438 
C 231.146258 387.100196 244.03718 395.713635 258.223525 401.589811 
C 272.409869 407.465988 287.615749 410.490625 302.970937 410.490625 
C 318.326126 410.490625 333.532006 407.465988 347.71835 401.589811 
C 361.904695 395.713635 374.795617 387.100196 385.653375 376.242438 
C 396.511134 365.38468 405.124572 352.493758 411.000749 338.307413 
C 416.876925 324.121068 419.901562 308.915189 419.901562 293.56 
" clip-path="url(#pcac3f04569)" style="fill: none; stroke-dasharray: 2.96,1.28; stroke-dashoffset: 0; stroke: #808080; stroke-opacity: 0.4; stroke-width: 0.8"/>
     </g>
     <g id="text_11">
      <!-- 0 -->
      <g transform="translate(411.000749 245.8179) scale(0.14 -0.14)">
       <use xlink:href="#TimesNewRomanPSMT-30"/>
      </g>
     </g>
    </g>
    <g id="ytick_6">
     <g id="line2d_12">
      <path d="M 447.762797 293.56 
C 447.762797 274.546107 444.017475 255.717101 436.741173 238.150554 
C 429.464871 220.584008 418.799096 204.621547 405.354243 191.176694 
C 391.909391 177.731842 375.94693 167.066066 358.380383 159.789764 
C 340.813837 152.513462 321.98483 148.76814 302.970937 148.76814 
C 283.957045 148.76814 265.128038 152.513462 247.561492 159.789764 
C 229.994945 167.066066 214.032484 177.731842 200.587632 191.176694 
C 187.142779 204.621547 176.477004 220.584008 169.200702 238.150554 
C 161.9244 255.717101 158.179078 274.546107 158.179078 293.56 
C 158.179078 312.573893 161.9244 331.402899 169.200702 348.969446 
C 176.477004 366.535992 187.142779 382.498453 200.587632 395.943306 
C 214.032484 409.388158 229.994945 420.053934 247.561492 427.330236 
C 265.128038 434.606538 283.957045 438.35186 302.970937 438.35186 
C 321.98483 438.35186 340.813837 434.606538 358.380383 427.330236 
C 375.94693 420.053934 391.909391 409.388158 405.354243 395.943306 
C 418.799096 382.498453 429.464871 366.535992 436.741173 348.969446 
C 444.017475 331.402899 447.762797 312.573893 447.762797 293.56 
" clip-path="url(#pcac3f04569)" style="fill: none; stroke-dasharray: 2.96,1.28; stroke-dashoffset: 0; stroke: #808080; stroke-opacity: 0.4; stroke-width: 0.8"/>
     </g>
     <g id="text_12">
      <!-- 20 -->
      <g transform="translate(436.741173 235.155867) scale(0.14 -0.14)">
       <use xlink:href="#TimesNewRomanPSMT-32"/>
       <use xlink:href="#TimesNewRomanPSMT-30" transform="translate(50 0)"/>
      </g>
     </g>
    </g>
    <g id="ytick_7">
     <g id="line2d_13">
      <path d="M 475.624032 293.56 
C 475.624032 270.887403 471.158025 248.435269 462.481598 227.488521 
C 453.805171 206.541773 441.087058 187.507773 425.055111 171.475826 
C 409.023165 155.443879 389.989164 142.725767 369.042416 134.04934 
C 348.095668 125.372913 325.643534 120.906905 302.970937 120.906905 
C 280.298341 120.906905 257.846207 125.372913 236.899459 134.04934 
C 215.952711 142.725767 196.91871 155.443879 180.886764 171.475826 
C 164.854817 187.507773 152.136704 206.541773 143.460277 227.488521 
C 134.78385 248.435269 130.317843 270.887403 130.317843 293.56 
C 130.317843 316.232597 134.78385 338.684731 143.460277 359.631479 
C 152.136704 380.578227 164.854817 399.612227 180.886764 415.644174 
C 196.91871 431.676121 215.952711 444.394233 236.899459 453.07066 
C 257.846207 461.747087 280.298341 466.213095 302.970937 466.213095 
C 325.643534 466.213095 348.095668 461.747087 369.042416 453.07066 
C 389.989164 444.394233 409.023165 431.676121 425.055111 415.644174 
C 441.087058 399.612227 453.805171 380.578227 462.481598 359.631479 
C 471.158025 338.684731 475.624032 316.232597 475.624032 293.56 
" clip-path="url(#pcac3f04569)" style="fill: none; stroke-dasharray: 2.96,1.28; stroke-dashoffset: 0; stroke: #808080; stroke-opacity: 0.4; stroke-width: 0.8"/>
     </g>
     <g id="text_13">
      <!-- 40 -->
      <g transform="translate(462.481598 224.493834) scale(0.14 -0.14)">
       <use xlink:href="#TimesNewRomanPSMT-34"/>
       <use xlink:href="#TimesNewRomanPSMT-30" transform="translate(50 0)"/>
      </g>
     </g>
    </g>
    <g id="ytick_8">
     <g id="line2d_14">
      <path d="M 503.485267 293.56 
C 503.485267 267.2287 498.298575 241.153438 488.222022 216.826488 
C 478.14547 192.499539 463.375021 170.393999 444.75598 151.774958 
C 426.136938 133.155917 404.031399 118.385468 379.704449 108.308915 
C 355.3775 98.232363 329.302238 93.045671 302.970937 93.045671 
C 276.639637 93.045671 250.564375 98.232363 226.237426 108.308915 
C 201.910476 118.385468 179.804937 133.155917 161.185895 151.774958 
C 142.566854 170.393999 127.796405 192.499539 117.719853 216.826488 
C 107.6433 241.153438 102.456608 267.2287 102.456608 293.56 
C 102.456608 319.8913 107.6433 345.966562 117.719853 370.293512 
C 127.796405 394.620461 142.566854 416.726001 161.185895 435.345042 
C 179.804937 453.964083 201.910476 468.734532 226.237426 478.811085 
C 250.564375 488.887637 276.639637 494.074329 302.970937 494.074329 
C 329.302238 494.074329 355.3775 488.887637 379.704449 478.811085 
C 404.031399 468.734532 426.136938 453.964083 444.75598 435.345042 
C 463.375021 416.726001 478.14547 394.620461 488.222022 370.293512 
C 498.298575 345.966562 503.485267 319.8913 503.485267 293.56 
" clip-path="url(#pcac3f04569)" style="fill: none; stroke-dasharray: 2.96,1.28; stroke-dashoffset: 0; stroke: #808080; stroke-opacity: 0.4; stroke-width: 0.8"/>
     </g>
     <g id="text_14">
      <!-- 60 -->
      <g transform="translate(488.222022 213.831801) scale(0.14 -0.14)">
       <use xlink:href="#TimesNewRomanPSMT-36"/>
       <use xlink:href="#TimesNewRomanPSMT-30" transform="translate(50 0)"/>
      </g>
     </g>
    </g>
    <g id="ytick_9">
     <g id="line2d_15">
      <path d="M 531.346502 293.56 
C 531.346502 263.569996 525.439125 233.871606 513.962447 206.164455 
C 502.485769 178.457304 485.662983 153.280225 464.456848 132.07409 
C 443.250712 110.867954 418.073633 94.045168 390.366482 82.568491 
C 362.659331 71.091813 332.960942 65.184436 302.970937 65.184436 
C 272.980933 65.184436 243.282544 71.091813 215.575393 82.568491 
C 187.868242 94.045168 162.691163 110.867954 141.485027 132.07409 
C 120.278892 153.280225 103.456106 178.457304 91.979428 206.164455 
C 80.50275 233.871606 74.595373 263.569996 74.595373 293.56 
C 74.595373 323.550004 80.50275 353.248394 91.979428 380.955545 
C 103.456106 408.662696 120.278892 433.839775 141.485027 455.04591 
C 162.691163 476.252046 187.868242 493.074832 215.575393 504.551509 
C 243.282544 516.028187 272.980933 521.935564 302.970937 521.935564 
C 332.960942 521.935564 362.659331 516.028187 390.366482 504.551509 
C 418.073633 493.074832 443.250712 476.252046 464.456848 455.04591 
C 485.662983 433.839775 502.485769 408.662696 513.962447 380.955545 
C 525.439125 353.248394 531.346502 323.550004 531.346502 293.56 
" clip-path="url(#pcac3f04569)" style="fill: none; stroke-dasharray: 2.96,1.28; stroke-dashoffset: 0; stroke: #808080; stroke-opacity: 0.4; stroke-width: 0.8"/>
     </g>
     <g id="text_15">
      <!-- 80 -->
      <g transform="translate(513.962447 203.169768) scale(0.14 -0.14)">
       <use xlink:href="#TimesNewRomanPSMT-38"/>
       <use xlink:href="#TimesNewRomanPSMT-30" transform="translate(50 0)"/>
      </g>
     </g>
    </g>
   </g>
   <g id="patch_3">
    <path d="M 509.848197 293.56 
L 383.968863 153.267477 
L 229.252089 165.875209 
L 149.314315 293.56 
L 226.885483 425.343872 
L 369.700712 409.139359 
z
" clip-path="url(#pcac3f04569)" style="fill: #9b59b6; opacity: 0.25; stroke: #9b59b6; stroke-linejoin: miter"/>
   </g>
   <g id="line2d_16">
    <path d="M 509.848197 293.56 
L 383.968863 153.267477 
L 229.252089 165.875209 
L 149.314315 293.56 
L 226.885483 425.343872 
L 369.700712 409.139359 
L 509.848197 293.56 
" clip-path="url(#pcac3f04569)" style="fill: none; stroke: #9b59b6; stroke-width: 3; stroke-linecap: square"/>
    <defs>
     <path id="m1cbd09d305" d="M 0 4 
C 1.060812 4 2.078319 3.578535 2.828427 2.828427 
C 3.578535 2.078319 4 1.060812 4 0 
C 4 -1.060812 3.578535 -2.078319 2.828427 -2.828427 
C 2.078319 -3.578535 1.060812 -4 0 -4 
C -1.060812 -4 -2.078319 -3.578535 -2.828427 -2.828427 
C -3.578535 -2.078319 -4 -1.060812 -4 0 
C -4 1.060812 -3.578535 2.078319 -2.828427 2.828427 
C -2.078319 3.578535 -1.060812 4 0 4 
z
" style="stroke: #ffffff; stroke-width: 2"/>
    </defs>
    <g clip-path="url(#pcac3f04569)">
     <use xlink:href="#m1cbd09d305" x="509.848197" y="293.56" style="fill: #9b59b6; stroke: #ffffff; stroke-width: 2"/>
     <use xlink:href="#m1cbd09d305" x="383.968863" y="153.267477" style="fill: #9b59b6; stroke: #ffffff; stroke-width: 2"/>
     <use xlink:href="#m1cbd09d305" x="229.252089" y="165.875209" style="fill: #9b59b6; stroke: #ffffff; stroke-width: 2"/>
     <use xlink:href="#m1cbd09d305" x="149.314315" y="293.56" style="fill: #9b59b6; stroke: #ffffff; stroke-width: 2"/>
     <use xlink:href="#m1cbd09d305" x="226.885483" y="425.343872" style="fill: #9b59b6; stroke: #ffffff; stroke-width: 2"/>
     <use xlink:href="#m1cbd09d305" x="369.700712" y="409.139359" style="fill: #9b59b6; stroke: #ffffff; stroke-width: 2"/>
     <use xlink:href="#m1cbd09d305" x="509.848197" y="293.56" style="fill: #9b59b6; stroke: #ffffff; stroke-width: 2"/>
    </g>
   </g>
   <g id="patch_4">
    <path d="M 536.832187 293.56 
C 536.832187 262.849622 530.782913 232.437864 519.03056 204.065174 
C 507.278207 175.692485 490.05133 149.910641 468.335813 128.195124 
C 446.620297 106.479608 420.838453 89.252731 392.465763 77.500378 
C 364.093074 65.748025 333.681315 59.69875 302.970937 59.69875 
C 272.26056 59.69875 241.848801 65.748025 213.476112 77.500378 
C 185.103422 89.252731 159.321578 106.479608 137.606062 128.195124 
C 115.890545 149.910641 98.663668 175.692485 86.911315 204.065174 
C 75.158962 232.437864 69.109688 262.849622 69.109688 293.56 
C 69.109688 324.270378 75.158962 354.682136 86.911315 383.054826 
C 98.663668 411.427515 115.890545 437.209359 137.606062 458.924876 
C 159.321578 480.640392 185.103422 497.867269 213.476112 509.619622 
C 241.848801 521.371975 272.26056 527.42125 302.970937 527.42125 
C 333.681315 527.42125 364.093074 521.371975 392.465763 509.619622 
C 420.838453 497.867269 446.620297 480.640392 468.335813 458.924876 
C 490.05133 437.209359 507.278207 411.427515 519.03056 383.054826 
C 530.782913 354.682136 536.832187 324.270378 536.832187 293.56 
" style="fill: none; stroke: #000000; stroke-width: 1.2; stroke-linejoin: miter; stroke-linecap: square"/>
   </g>
   <g id="text_16">
    <!-- ↑ -->
    <g style="fill: #27ae60" transform="translate(524.337524 296.697969) scale(0.14 -0.14)">
     <defs>
      <path id="TimesNewRomanPS-BoldMT-2191" d="M 478 2894 
Q 931 3309 1167 3612 
Q 1403 3916 1519 4184 
L 1663 4184 
Q 1809 3875 2042 3584 
Q 2275 3294 2725 2891 
L 2725 2650 
Q 2097 2944 1759 3266 
L 1759 -1341 
L 1444 -1341 
L 1444 3266 
Q 1144 3028 995 2934 
Q 847 2841 478 2656 
L 478 2894 
z
" transform="scale(0.015625)"/>
     </defs>
     <use xlink:href="#TimesNewRomanPS-BoldMT-2191"/>
    </g>
   </g>
   <g id="text_17">
    <!-- ↑ -->
    <g style="fill: #27ae60" transform="translate(384.975386 148.599919) scale(0.14 -0.14)">
     <use xlink:href="#TimesNewRomanPS-BoldMT-2191"/>
    </g>
   </g>
   <g id="text_18">
    <!-- ↑ -->
    <g style="fill: #27ae60" transform="translate(222.701382 163.729198) scale(0.14 -0.14)">
     <use xlink:href="#TimesNewRomanPS-BoldMT-2191"/>
    </g>
   </g>
   <g id="text_19">
    <!-- ↑ -->
    <g style="fill: #27ae60" transform="translate(138.469116 296.697969) scale(0.14 -0.14)">
     <use xlink:href="#TimesNewRomanPS-BoldMT-2191"/>
    </g>
   </g>
   <g id="text_20">
    <!-- ↑ -->
    <g style="fill: #27ae60" transform="translate(219.861455 434.585637) scale(0.14 -0.14)">
     <use xlink:href="#TimesNewRomanPS-BoldMT-2191"/>
    </g>
   </g>
   <g id="text_21">
    <!-- ↑ -->
    <g style="fill: #27ae60" transform="translate(367.853604 415.140222) scale(0.14 -0.14)">
     <use xlink:href="#TimesNewRomanPS-BoldMT-2191"/>
    </g>
   </g>
   <g id="text_22">
    <!-- Radar Chart: Percentage Improvement with Trends (↑↓) -->
    <g transform="translate(102.009375 19.69875) scale(0.18 -0.18)">
     <defs>
      <path id="TimesNewRomanPSMT-52" d="M 4325 0 
L 3194 0 
L 1759 1981 
Q 1600 1975 1500 1975 
Q 1459 1975 1412 1976 
Q 1366 1978 1316 1981 
L 1316 750 
Q 1316 350 1403 253 
Q 1522 116 1759 116 
L 1925 116 
L 1925 0 
L 109 0 
L 109 116 
L 269 116 
Q 538 116 653 291 
Q 719 388 719 750 
L 719 3488 
Q 719 3888 631 3984 
Q 509 4122 269 4122 
L 109 4122 
L 109 4238 
L 1653 4238 
Q 2328 4238 2648 4139 
Q 2969 4041 3192 3777 
Q 3416 3513 3416 3147 
Q 3416 2756 3161 2468 
Q 2906 2181 2372 2063 
L 3247 847 
Q 3547 428 3762 290 
Q 3978 153 4325 116 
L 4325 0 
z
M 1316 2178 
Q 1375 2178 1419 2176 
Q 1463 2175 1491 2175 
Q 2097 2175 2405 2437 
Q 2713 2700 2713 3106 
Q 2713 3503 2464 3751 
Q 2216 4000 1806 4000 
Q 1625 4000 1316 3941 
L 1316 2178 
z
" transform="scale(0.015625)"/>
      <path id="TimesNewRomanPSMT-64" d="M 2222 322 
Q 2013 103 1813 7 
Q 1613 -88 1381 -88 
Q 913 -88 563 304 
Q 213 697 213 1313 
Q 213 1928 600 2439 
Q 988 2950 1597 2950 
Q 1975 2950 2222 2709 
L 2222 3238 
Q 2222 3728 2198 3840 
Q 2175 3953 2125 3993 
Q 2075 4034 2000 4034 
Q 1919 4034 1784 3984 
L 1744 4094 
L 2597 4444 
L 2738 4444 
L 2738 1134 
Q 2738 631 2761 520 
Q 2784 409 2836 365 
Q 2888 322 2956 322 
Q 3041 322 3181 375 
L 3216 266 
L 2366 -88 
L 2222 -88 
L 2222 322 
z
M 2222 541 
L 2222 2016 
Q 2203 2228 2109 2403 
Q 2016 2578 1861 2667 
Q 1706 2756 1559 2756 
Q 1284 2756 1069 2509 
Q 784 2184 784 1559 
Q 784 928 1059 592 
Q 1334 256 1672 256 
Q 1956 256 2222 541 
z
" transform="scale(0.015625)"/>
      <path id="TimesNewRomanPSMT-20" transform="scale(0.015625)"/>
      <path id="TimesNewRomanPSMT-43" d="M 3853 4334 
L 3950 2894 
L 3853 2894 
Q 3659 3541 3300 3825 
Q 2941 4109 2438 4109 
Q 2016 4109 1675 3895 
Q 1334 3681 1139 3212 
Q 944 2744 944 2047 
Q 944 1472 1128 1050 
Q 1313 628 1683 403 
Q 2053 178 2528 178 
Q 2941 178 3256 354 
Q 3572 531 3950 1056 
L 4047 994 
Q 3728 428 3303 165 
Q 2878 -97 2294 -97 
Q 1241 -97 663 684 
Q 231 1266 231 2053 
Q 231 2688 515 3219 
Q 800 3750 1298 4042 
Q 1797 4334 2388 4334 
Q 2847 4334 3294 4109 
Q 3425 4041 3481 4041 
Q 3566 4041 3628 4100 
Q 3709 4184 3744 4334 
L 3853 4334 
z
" transform="scale(0.015625)"/>
      <path id="TimesNewRomanPSMT-3a" d="M 903 2950 
Q 1047 2950 1148 2848 
Q 1250 2747 1250 2603 
Q 1250 2459 1148 2357 
Q 1047 2256 903 2256 
Q 759 2256 657 2357 
Q 556 2459 556 2603 
Q 556 2747 657 2848 
Q 759 2950 903 2950 
z
M 897 609 
Q 1044 609 1145 506 
Q 1247 403 1247 259 
Q 1247 116 1144 14 
Q 1041 -88 897 -88 
Q 753 -88 651 14 
Q 550 116 550 259 
Q 550 403 651 506 
Q 753 609 897 609 
z
" transform="scale(0.015625)"/>
      <path id="TimesNewRomanPSMT-50" d="M 1313 1984 
L 1313 750 
Q 1313 350 1400 253 
Q 1519 116 1759 116 
L 1922 116 
L 1922 0 
L 106 0 
L 106 116 
L 266 116 
Q 534 116 650 291 
Q 713 388 713 750 
L 713 3488 
Q 713 3888 628 3984 
Q 506 4122 266 4122 
L 106 4122 
L 106 4238 
L 1659 4238 
Q 2228 4238 2556 4120 
Q 2884 4003 3109 3725 
Q 3334 3447 3334 3066 
Q 3334 2547 2992 2222 
Q 2650 1897 2025 1897 
Q 1872 1897 1694 1919 
Q 1516 1941 1313 1984 
z
M 1313 2163 
Q 1478 2131 1606 2115 
Q 1734 2100 1825 2100 
Q 2150 2100 2386 2351 
Q 2622 2603 2622 3003 
Q 2622 3278 2509 3514 
Q 2397 3750 2190 3867 
Q 1984 3984 1722 3984 
Q 1563 3984 1313 3925 
L 1313 2163 
z
" transform="scale(0.015625)"/>
      <path id="TimesNewRomanPSMT-49" d="M 1975 116 
L 1975 0 
L 159 0 
L 159 116 
L 309 116 
Q 572 116 691 269 
Q 766 369 766 750 
L 766 3488 
Q 766 3809 725 3913 
Q 694 3991 597 4047 
Q 459 4122 309 4122 
L 159 4122 
L 159 4238 
L 1975 4238 
L 1975 4122 
L 1822 4122 
Q 1563 4122 1444 3969 
Q 1366 3869 1366 3488 
L 1366 750 
Q 1366 428 1406 325 
Q 1438 247 1538 191 
Q 1672 116 1822 116 
L 1975 116 
z
" transform="scale(0.015625)"/>
      <path id="TimesNewRomanPSMT-76" d="M 53 2863 
L 1400 2863 
L 1400 2747 
L 1313 2747 
Q 1191 2747 1127 2687 
Q 1063 2628 1063 2528 
Q 1063 2419 1128 2269 
L 1794 688 
L 2463 2328 
Q 2534 2503 2534 2594 
Q 2534 2638 2509 2666 
Q 2475 2713 2422 2730 
Q 2369 2747 2206 2747 
L 2206 2863 
L 3141 2863 
L 3141 2747 
Q 2978 2734 2916 2681 
Q 2806 2588 2719 2369 
L 1703 -88 
L 1575 -88 
L 553 2328 
Q 484 2497 421 2570 
Q 359 2644 263 2694 
Q 209 2722 53 2747 
L 53 2863 
z
" transform="scale(0.015625)"/>
      <path id="TimesNewRomanPSMT-77" d="M 41 2863 
L 1241 2863 
L 1241 2747 
Q 1075 2734 1023 2687 
Q 972 2641 972 2553 
Q 972 2456 1025 2319 
L 1638 672 
L 2253 2013 
L 2091 2434 
Q 2016 2622 1894 2694 
Q 1825 2738 1638 2747 
L 1638 2863 
L 3000 2863 
L 3000 2747 
Q 2775 2738 2681 2666 
Q 2619 2616 2619 2506 
Q 2619 2444 2644 2378 
L 3294 734 
L 3897 2319 
Q 3959 2488 3959 2588 
Q 3959 2647 3898 2694 
Q 3838 2741 3659 2747 
L 3659 2863 
L 4563 2863 
L 4563 2747 
Q 4291 2706 4163 2378 
L 3206 -88 
L 3078 -88 
L 2363 1741 
L 1528 -88 
L 1413 -88 
L 494 2319 
Q 403 2547 315 2626 
Q 228 2706 41 2747 
L 41 2863 
z
" transform="scale(0.015625)"/>
      <path id="TimesNewRomanPSMT-69" d="M 928 4444 
Q 1059 4444 1151 4351 
Q 1244 4259 1244 4128 
Q 1244 3997 1151 3903 
Q 1059 3809 928 3809 
Q 797 3809 703 3903 
Q 609 3997 609 4128 
Q 609 4259 701 4351 
Q 794 4444 928 4444 
z
M 1188 2947 
L 1188 647 
Q 1188 378 1227 289 
Q 1266 200 1342 156 
Q 1419 113 1622 113 
L 1622 0 
L 231 0 
L 231 113 
Q 441 113 512 153 
Q 584 194 626 287 
Q 669 381 669 647 
L 669 1750 
Q 669 2216 641 2353 
Q 619 2453 572 2492 
Q 525 2531 444 2531 
Q 356 2531 231 2484 
L 188 2597 
L 1050 2947 
L 1188 2947 
z
" transform="scale(0.015625)"/>
      <path id="TimesNewRomanPSMT-54" d="M 3703 4238 
L 3750 3244 
L 3631 3244 
Q 3597 3506 3538 3619 
Q 3441 3800 3280 3886 
Q 3119 3972 2856 3972 
L 2259 3972 
L 2259 734 
Q 2259 344 2344 247 
Q 2463 116 2709 116 
L 2856 116 
L 2856 0 
L 1059 0 
L 1059 116 
L 1209 116 
Q 1478 116 1591 278 
Q 1659 378 1659 734 
L 1659 3972 
L 1150 3972 
Q 853 3972 728 3928 
Q 566 3869 450 3700 
Q 334 3531 313 3244 
L 194 3244 
L 244 4238 
L 3703 4238 
z
" transform="scale(0.015625)"/>
      <path id="TimesNewRomanPSMT-28" d="M 1988 -1253 
L 1988 -1369 
Q 1516 -1131 1200 -813 
Q 750 -359 506 256 
Q 263 872 263 1534 
Q 263 2503 741 3301 
Q 1219 4100 1988 4444 
L 1988 4313 
Q 1603 4100 1356 3731 
Q 1109 3363 987 2797 
Q 866 2231 866 1616 
Q 866 947 969 400 
Q 1050 -31 1165 -292 
Q 1281 -553 1476 -793 
Q 1672 -1034 1988 -1253 
z
" transform="scale(0.015625)"/>
      <path id="TimesNewRomanPSMT-2191" d="M 478 2894 
Q 931 3309 1167 3612 
Q 1403 3916 1519 4184 
L 1663 4184 
Q 1809 3875 2042 3584 
Q 2275 3294 2725 2891 
L 2725 2650 
Q 2097 2944 1759 3266 
L 1759 -1341 
L 1444 -1341 
L 1444 3266 
Q 1144 3028 995 2934 
Q 847 2841 478 2656 
L 478 2894 
z
" transform="scale(0.015625)"/>
      <path id="TimesNewRomanPSMT-2193" d="M 478 -50 
L 478 188 
Q 850 3 997 -90 
Q 1144 -184 1444 -422 
L 1444 4184 
L 1759 4184 
L 1759 -422 
Q 2097 -100 2725 194 
L 2725 -47 
Q 2275 -450 2042 -740 
Q 1809 -1031 1663 -1341 
L 1519 -1341 
Q 1403 -1072 1167 -769 
Q 931 -466 478 -50 
z
" transform="scale(0.015625)"/>
      <path id="TimesNewRomanPSMT-29" d="M 144 4313 
L 144 4444 
Q 619 4209 934 3891 
Q 1381 3434 1625 2820 
Q 1869 2206 1869 1541 
Q 1869 572 1392 -226 
Q 916 -1025 144 -1369 
L 144 -1253 
Q 528 -1038 776 -670 
Q 1025 -303 1145 264 
Q 1266 831 1266 1447 
Q 1266 2113 1163 2663 
Q 1084 3094 967 3353 
Q 850 3613 656 3853 
Q 463 4094 144 4313 
z
" transform="scale(0.015625)"/>
     </defs>
     <use xlink:href="#TimesNewRomanPSMT-52"/>
     <use xlink:href="#TimesNewRomanPSMT-61" transform="translate(66.699219 0)"/>
     <use xlink:href="#TimesNewRomanPSMT-64" transform="translate(111.083984 0)"/>
     <use xlink:href="#TimesNewRomanPSMT-61" transform="translate(161.083984 0)"/>
     <use xlink:href="#TimesNewRomanPSMT-72" transform="translate(205.46875 0)"/>
     <use xlink:href="#TimesNewRomanPSMT-20" transform="translate(238.769531 0)"/>
     <use xlink:href="#TimesNewRomanPSMT-43" transform="translate(263.769531 0)"/>
     <use xlink:href="#TimesNewRomanPSMT-68" transform="translate(330.46875 0)"/>
     <use xlink:href="#TimesNewRomanPSMT-61" transform="translate(380.46875 0)"/>
     <use xlink:href="#TimesNewRomanPSMT-72" transform="translate(424.853516 0)"/>
     <use xlink:href="#TimesNewRomanPSMT-74" transform="translate(458.154297 0)"/>
     <use xlink:href="#TimesNewRomanPSMT-3a" transform="translate(485.9375 0)"/>
     <use xlink:href="#TimesNewRomanPSMT-20" transform="translate(513.720703 0)"/>
     <use xlink:href="#TimesNewRomanPSMT-50" transform="translate(538.720703 0)"/>
     <use xlink:href="#TimesNewRomanPSMT-65" transform="translate(594.335938 0)"/>
     <use xlink:href="#TimesNewRomanPSMT-72" transform="translate(638.720703 0)"/>
     <use xlink:href="#TimesNewRomanPSMT-63" transform="translate(672.021484 0)"/>
     <use xlink:href="#TimesNewRomanPSMT-65" transform="translate(716.40625 0)"/>
     <use xlink:href="#TimesNewRomanPSMT-6e" transform="translate(760.791016 0)"/>
     <use xlink:href="#TimesNewRomanPSMT-74" transform="translate(810.791016 0)"/>
     <use xlink:href="#TimesNewRomanPSMT-61" transform="translate(838.574219 0)"/>
     <use xlink:href="#TimesNewRomanPSMT-67" transform="translate(882.958984 0)"/>
     <use xlink:href="#TimesNewRomanPSMT-65" transform="translate(932.958984 0)"/>
     <use xlink:href="#TimesNewRomanPSMT-20" transform="translate(977.34375 0)"/>
     <use xlink:href="#TimesNewRomanPSMT-49" transform="translate(1002.34375 0)"/>
     <use xlink:href="#TimesNewRomanPSMT-6d" transform="translate(1035.644531 0)"/>
     <use xlink:href="#TimesNewRomanPSMT-70" transform="translate(1113.427734 0)"/>
     <use xlink:href="#TimesNewRomanPSMT-72" transform="translate(1163.427734 0)"/>
     <use xlink:href="#TimesNewRomanPSMT-6f" transform="translate(1196.728516 0)"/>
     <use xlink:href="#TimesNewRomanPSMT-76" transform="translate(1246.728516 0)"/>
     <use xlink:href="#TimesNewRomanPSMT-65" transform="translate(1296.728516 0)"/>
     <use xlink:href="#TimesNewRomanPSMT-6d" transform="translate(1341.113281 0)"/>
     <use xlink:href="#TimesNewRomanPSMT-65" transform="translate(1418.896484 0)"/>
     <use xlink:href="#TimesNewRomanPSMT-6e" transform="translate(1463.28125 0)"/>
     <use xlink:href="#TimesNewRomanPSMT-74" transform="translate(1513.28125 0)"/>
     <use xlink:href="#TimesNewRomanPSMT-20" transform="translate(1541.064453 0)"/>
     <use xlink:href="#TimesNewRomanPSMT-77" transform="translate(1566.064453 0)"/>
     <use xlink:href="#TimesNewRomanPSMT-69" transform="translate(1638.28125 0)"/>
     <use xlink:href="#TimesNewRomanPSMT-74" transform="translate(1666.064453 0)"/>
     <use xlink:href="#TimesNewRomanPSMT-68" transform="translate(1693.847656 0)"/>
     <use xlink:href="#TimesNewRomanPSMT-20" transform="translate(1743.847656 0)"/>
     <use xlink:href="#TimesNewRomanPSMT-54" transform="translate(1767.097656 0)"/>
     <use xlink:href="#TimesNewRomanPSMT-72" transform="translate(1824.681641 0)"/>
     <use xlink:href="#TimesNewRomanPSMT-65" transform="translate(1857.982422 0)"/>
     <use xlink:href="#TimesNewRomanPSMT-6e" transform="translate(1902.367188 0)"/>
     <use xlink:href="#TimesNewRomanPSMT-64" transform="translate(1952.367188 0)"/>
     <use xlink:href="#TimesNewRomanPSMT-73" transform="translate(2002.367188 0)"/>
     <use xlink:href="#TimesNewRomanPSMT-20" transform="translate(2041.283203 0)"/>
     <use xlink:href="#TimesNewRomanPSMT-28" transform="translate(2066.283203 0)"/>
     <use xlink:href="#TimesNewRomanPSMT-2191" transform="translate(2099.583984 0)"/>
     <use xlink:href="#TimesNewRomanPSMT-2193" transform="translate(2149.583984 0)"/>
     <use xlink:href="#TimesNewRomanPSMT-29" transform="translate(2199.583984 0)"/>
    </g>
   </g>
   <g id="legend_1">
    <g id="patch_5">
     <path d="M 524.643625 92.693437 
L 669.348937 92.693437 
Q 672.148937 92.693437 672.148937 89.893437 
L 672.148937 71.49875 
Q 672.148937 68.69875 669.348937 68.69875 
L 524.643625 68.69875 
Q 521.843625 68.69875 521.843625 71.49875 
L 521.843625 89.893437 
Q 521.843625 92.693437 524.643625 92.693437 
z
" style="fill: #4d4d4d; opacity: 0.5; stroke: #4d4d4d; stroke-linejoin: miter"/>
    </g>
    <g id="patch_6">
     <path d="M 522.643625 90.693437 
L 667.348937 90.693437 
Q 670.148937 90.693437 670.148937 87.893437 
L 670.148937 69.49875 
Q 670.148937 66.69875 667.348937 66.69875 
L 522.643625 66.69875 
Q 519.843625 66.69875 519.843625 69.49875 
L 519.843625 87.893437 
Q 519.843625 90.693437 522.643625 90.693437 
z
" style="fill: #ffffff; opacity: 0.9; stroke: #808080; stroke-linejoin: miter"/>
    </g>
    <g id="line2d_17">
     <path d="M 525.443625 77.19875 
L 539.443625 77.19875 
L 553.443625 77.19875 
" style="fill: none; stroke: #9b59b6; stroke-width: 3; stroke-linecap: square"/>
     <g>
      <use xlink:href="#m1cbd09d305" x="539.443625" y="77.19875" style="fill: #9b59b6; stroke: #ffffff; stroke-width: 2"/>
     </g>
    </g>
    <g id="text_23">
     <!-- Improvement (%) -->
     <g transform="translate(564.643625 82.09875) scale(0.14 -0.14)">
      <defs>
       <path id="TimesNewRomanPSMT-25" d="M 4350 4334 
L 1263 -175 
L 984 -175 
L 4072 4334 
L 4350 4334 
z
M 1138 4334 
Q 1559 4334 1792 3984 
Q 2025 3634 2025 3181 
Q 2025 2638 1762 2341 
Q 1500 2044 1131 2044 
Q 884 2044 678 2180 
Q 472 2316 348 2584 
Q 225 2853 225 3181 
Q 225 3509 350 3786 
Q 475 4063 692 4198 
Q 909 4334 1138 4334 
z
M 1128 4159 
Q 969 4159 845 3971 
Q 722 3784 722 3184 
Q 722 2750 791 2522 
Q 844 2350 956 2256 
Q 1022 2200 1119 2200 
Q 1269 2200 1375 2363 
Q 1531 2603 1531 3166 
Q 1531 3759 1378 4000 
Q 1278 4159 1128 4159 
z
M 4206 2103 
Q 4428 2103 4648 1962 
Q 4869 1822 4989 1553 
Q 5109 1284 5109 963 
Q 5109 409 4843 117 
Q 4578 -175 4216 -175 
Q 3988 -175 3773 -34 
Q 3559 106 3436 367 
Q 3313 628 3313 963 
Q 3313 1291 3436 1562 
Q 3559 1834 3773 1968 
Q 3988 2103 4206 2103 
z
M 4209 1938 
Q 4059 1938 3950 1769 
Q 3809 1550 3809 941 
Q 3809 381 3953 159 
Q 4059 0 4209 0 
Q 4353 0 4466 172 
Q 4616 400 4616 956 
Q 4616 1544 4466 1778 
Q 4363 1938 4209 1938 
z
" transform="scale(0.015625)"/>
      </defs>
      <use xlink:href="#TimesNewRomanPSMT-49"/>
      <use xlink:href="#TimesNewRomanPSMT-6d" transform="translate(33.300781 0)"/>
      <use xlink:href="#TimesNewRomanPSMT-70" transform="translate(111.083984 0)"/>
      <use xlink:href="#TimesNewRomanPSMT-72" transform="translate(161.083984 0)"/>
      <use xlink:href="#TimesNewRomanPSMT-6f" transform="translate(194.384766 0)"/>
      <use xlink:href="#TimesNewRomanPSMT-76" transform="translate(244.384766 0)"/>
      <use xlink:href="#TimesNewRomanPSMT-65" transform="translate(294.384766 0)"/>
      <use xlink:href="#TimesNewRomanPSMT-6d" transform="translate(338.769531 0)"/>
      <use xlink:href="#TimesNewRomanPSMT-65" transform="translate(416.552734 0)"/>
      <use xlink:href="#TimesNewRomanPSMT-6e" transform="translate(460.9375 0)"/>
      <use xlink:href="#TimesNewRomanPSMT-74" transform="translate(510.9375 0)"/>
      <use xlink:href="#TimesNewRomanPSMT-20" transform="translate(538.720703 0)"/>
      <use xlink:href="#TimesNewRomanPSMT-28" transform="translate(563.720703 0)"/>
      <use xlink:href="#TimesNewRomanPSMT-25" transform="translate(597.021484 0)"/>
      <use xlink:href="#TimesNewRomanPSMT-29" transform="translate(680.322266 0)"/>
     </g>
    </g>
   </g>
  </g>
 </g>
 <defs>
  <clipPath id="pcac3f04569">
   <path d="M 536.832187 293.56 
C 536.832187 262.849622 530.782913 232.437864 519.03056 204.065174 
C 507.278207 175.692485 490.05133 149.910641 468.335813 128.195124 
C 446.620297 106.479608 420.838453 89.252731 392.465763 77.500378 
C 364.093074 65.748025 333.681315 59.69875 302.970937 59.69875 
C 272.26056 59.69875 241.848801 65.748025 213.476112 77.500378 
C 185.103422 89.252731 159.321578 106.479608 137.606062 128.195124 
C 115.890545 149.910641 98.663668 175.692485 86.911315 204.065174 
C 75.158962 232.437864 69.109687 262.849622 69.109687 293.56 
C 69.109687 324.270378 75.158962 354.682136 86.911315 383.054826 
C 98.663668 411.427515 115.890545 437.209359 137.606062 458.924876 
C 159.321578 480.640392 185.103422 497.867269 213.476112 509.619622 
C 241.848801 521.371975 272.26056 527.42125 302.970937 527.42125 
C 333.681315 527.42125 364.093074 521.371975 392.465763 509.619622 
C 420.838453 497.867269 446.620297 480.640392 468.335813 458.924876 
C 490.05133 437.209359 507.278207 411.427515 519.03056 383.054826 
C 530.782913 354.682136 536.832187 324.270378 536.832187 293.56 
M 302.970937 293.56 
C 302.970937 293.56 302.970937 293.56 302.970937 293.56 
C 302.970937 293.56 302.970937 293.56 302.970937 293.56 
C 302.970937 293.56 302.970937 293.56 302.970937 293.56 
C 302.970937 293.56 302.970937 293.56 302.970937 293.56 
C 302.970937 293.56 302.970937 293.56 302.970937 293.56 
C 302.970937 293.56 302.970937 293.56 302.970937 293.56 
C 302.970937 293.56 302.970937 293.56 302.970937 293.56 
C 302.970937 293.56 302.970937 293.56 302.970937 293.56 
C 302.970937 293.56 302.970937 293.56 302.970937 293.56 
C 302.970937 293.56 302.970937 293.56 302.970937 293.56 
C 302.970937 293.56 302.970937 293.56 302.970937 293.56 
C 302.970937 293.56 302.970937 293.56 302.970937 293.56 
C 302.970937 293.56 302.970937 293.56 302.970937 293.56 
C 302.970937 293.56 302.970937 293.56 302.970937 293.56 
C 302.970937 293.56 302.970937 293.56 302.970937 293.56 
C 302.970937 293.56 302.970937 293.56 302.970937 293.56 
z
"/>
  </clipPath>
 </defs>
</svg>
